<?xml version="1.0" standalone="no"?>
<!DOCTYPE svg PUBLIC "-//W3C//DTD SVG 20010904//EN"
 "http://www.w3.org/TR/2001/REC-SVG-20010904/DTD/svg10.dtd">
<svg version="1.0" xmlns="http://www.w3.org/2000/svg"
 width="512.000000pt" height="512.000000pt" viewBox="0 0 512.000000 512.000000"
 preserveAspectRatio="xMidYMid meet">

<g transform="translate(0.000000,512.000000) scale(0.100000,-0.100000)"
fill="#000000" stroke="none">
<path d="M4525 4799 c-109 -27 -91 -8 -1060 -1144 -501 -588 -919 -1076 -928
-1083 -9 -7 -32 -12 -54 -10 -36 3 -51 18 -335 338 -163 184 -324 360 -357
391 -80 77 -147 102 -256 97 -140 -6 -256 -81 -326 -211 -32 -59 -34 -67 -34
-162 0 -89 3 -106 27 -151 29 -56 766 -894 850 -968 238 -208 630 -209 875 -3
89 74 1992 2313 2029 2386 25 49 29 67 29 146 0 82 -3 97 -32 156 -78 159
-272 257 -428 218z"/>
<path d="M1308 4579 c-170 -18 -361 -79 -503 -160 -128 -73 -188 -120 -296
-228 -179 -182 -299 -404 -355 -661 -18 -80 -19 -146 -19 -1080 0 -934 1
-1000 19 -1080 104 -474 440 -849 891 -994 197 -63 157 -61 1205 -61 883 0
962 1 1045 18 269 54 493 173 688 365 153 152 262 329 325 528 56 174 63 250
60 577 -3 280 -4 294 -26 338 -53 108 -152 179 -280 199 -164 27 -334 -56
-402 -195 -24 -48 -25 -60 -31 -335 -5 -229 -10 -296 -23 -340 -45 -143 -153
-275 -282 -342 -132 -70 -101 -68 -1071 -68 -591 0 -889 4 -925 11 -29 6 -89
28 -133 49 -138 66 -237 181 -292 337 l-28 78 0 910 c0 855 1 914 18 970 58
188 190 329 373 398 l59 22 855 5 855 5 56 26 c146 69 232 244 201 410 -30
162 -132 271 -281 299 -64 12 -1587 11 -1703 -1z"/>
</g>
</svg>
